<svg width="27" height="22" viewBox="0 0 27 22" fill="none" xmlns="http://www.w3.org/2000/svg">
<g clip-path="url(#clip0_232_16939)">
<path fill-rule="evenodd" clip-rule="evenodd" d="M1.02441 14.7119V0H26.4286V14.7136L13.729 22L1.02441 14.7119Z" fill="#2D2A26"/>
<path d="M1.66722 0.645996L1.66553 14.3356L13.7175 21.2643L13.7226 21.2677H13.7395L25.7694 14.3424L25.7813 14.3356V0.652777L1.66722 0.645996Z" fill="white"/>
<path d="M24.9214 1.45312H2.52637V8.61071H24.9214V1.45312Z" fill="#00833E"/>
<path fill-rule="evenodd" clip-rule="evenodd" d="M2.52637 9.38672V13.9064L13.729 20.3418L24.9214 13.9098V9.38672H2.52637Z" fill="#F5333F"/>
<path d="M15.555 18.1752V10.2514C15.555 10.2276 15.5363 10.209 15.5126 10.209H14.7056C14.6819 10.209 14.6632 10.2276 14.6632 10.2514V17.6921L13.7274 18.2024L12.7882 17.6904V10.2514C12.7882 10.2276 12.7696 10.209 12.7458 10.209H11.9372C11.9253 10.209 11.9151 10.2141 11.9084 10.2209C11.8999 10.2293 11.8965 10.2395 11.8965 10.2497V18.1718C11.8965 18.1871 11.905 18.2007 11.9168 18.2074L13.7054 19.2331C13.7172 19.2399 13.7342 19.2399 13.7478 19.2331L15.5329 18.2074C15.5465 18.2007 15.5533 18.1854 15.5533 18.1718L15.555 18.1752Z" fill="white"/>
<path d="M10.5892 17.4499C10.6011 17.4567 10.6163 17.4567 10.6282 17.4499C10.6401 17.4431 10.6485 17.4279 10.6485 17.4143V16.5565C10.6485 16.5412 10.6401 16.526 10.6282 16.5192L8.91593 15.5851V13.5117L10.4536 13.905C10.4671 13.905 10.4841 13.8864 10.4841 13.8626V13.015C10.4841 12.9997 10.4654 12.9794 10.4451 12.976L8.91763 12.6369V10.9908H10.6129C10.635 10.9908 10.6519 10.9721 10.6519 10.9484V10.2533C10.6519 10.2296 10.635 10.2109 10.6129 10.2109H8.0971C8.07506 10.2109 8.05811 10.2296 8.05811 10.2533V15.9648C8.05811 15.9801 8.06658 15.9936 8.07845 16.0021L10.5926 17.4516L10.5892 17.4499Z" fill="white"/>
<path d="M19.5726 15.8648V15.09C19.5726 15.0748 19.5641 15.0612 19.5522 15.0544C19.5404 15.0476 19.5234 15.0476 19.5116 15.0544L17.8315 15.9716V13.6914L19.398 13.2913C19.4166 13.2862 19.4302 13.2693 19.4302 13.2506V12.4928C19.4302 12.481 19.4251 12.4674 19.4149 12.4606C19.4081 12.4538 19.398 12.4521 19.3895 12.4521L17.8349 12.7929V10.9908H19.5336C19.5573 10.9908 19.576 10.9721 19.576 10.9484V10.2533C19.576 10.2296 19.5573 10.2109 19.5336 10.2109H17.0229C16.9991 10.2109 16.9805 10.2296 16.9805 10.2533V17.3109C16.9805 17.3261 16.9889 17.3397 17.0008 17.3465C17.0127 17.3533 17.0296 17.3533 17.0432 17.3465L19.5556 15.9004C19.5692 15.8936 19.576 15.8783 19.576 15.8648H19.5726Z" fill="white"/>
<path d="M5.93548 14.7747L6.62886 15.1748C6.64242 15.1816 6.65768 15.1816 6.66954 15.1748C6.68141 15.168 6.68989 15.1545 6.68989 15.1392V10.2533C6.68989 10.2296 6.67124 10.2109 6.6492 10.2109H5.95582C5.93378 10.2109 5.91513 10.2296 5.91513 10.2533V11.9758L4.24356 11.6079V10.2533C4.24356 10.2296 4.22491 10.2109 4.20287 10.2109H3.51627C3.5061 10.2109 3.49423 10.216 3.48745 10.2228C3.47898 10.2313 3.47559 10.2415 3.47559 10.2516V13.3422C3.47559 13.3574 3.48406 13.371 3.49762 13.3778L4.18253 13.7677C4.1944 13.7745 4.21135 13.7745 4.22322 13.7677C4.23678 13.7609 4.24356 13.7457 4.24356 13.7321V12.3148L5.91513 12.742V14.7374C5.91513 14.7527 5.92361 14.7662 5.93548 14.773V14.7747Z" fill="white"/>
<path d="M20.8885 15.1104C20.9003 15.1172 20.9173 15.1172 20.9309 15.1104L21.648 14.7035C21.648 14.7035 21.6531 14.6984 21.6531 14.6951V12.7166L22.0718 12.6064L23.3043 13.7084C23.3162 13.7253 23.3399 13.7304 23.3585 13.7203L23.9858 13.3558C23.996 13.3507 24.0028 13.3405 24.0061 13.3286C24.0078 13.3202 24.0061 13.31 24.0028 13.3032L22.9245 12.3894L23.6874 12.1962C23.9417 12.1317 23.9807 12.0131 23.9773 11.7554V10.5009C23.9434 10.3178 23.8112 10.2144 23.6213 10.2144C23.6111 10.2144 23.5993 10.2144 23.5942 10.2144H20.9071C20.8868 10.2144 20.8647 10.2398 20.8647 10.2635V15.0765C20.8647 15.0918 20.8732 15.1053 20.8851 15.1121L20.8885 15.1104ZM21.6531 10.9908H23.1093C23.1738 10.9908 23.2263 11.0434 23.2263 11.1078V11.4774C23.2263 11.5621 23.2111 11.6079 23.1009 11.6333L21.6514 11.9503V10.9891L21.6531 10.9908Z" fill="white"/>
<path fill-rule="evenodd" clip-rule="evenodd" d="M7.86661 7.70687V3.46182H10.1909V2.33105H3.89111V3.46182H6.21707V7.70687H7.86661Z" fill="white"/>
<path fill-rule="evenodd" clip-rule="evenodd" d="M23.2602 7.60656C21.9955 7.84221 20.3663 7.91172 19.1914 7.46246C18.1878 7.09627 17.569 6.22489 17.4402 5.37215C17.3062 4.32445 17.7809 3.40729 18.7896 2.79019C19.9662 2.09003 21.8327 2.11377 23.1161 2.60032V3.77008C22.1463 3.39881 20.685 3.0784 19.7543 3.66667C19.0846 4.09389 18.8795 4.77031 19.0456 5.44674C19.1796 5.97907 19.7305 6.46223 20.3442 6.63854C20.7782 6.75382 21.3139 6.79112 21.7988 6.74026V5.87226H21.158V4.82626H23.2585V7.60656H23.2602Z" fill="white"/>
<path fill-rule="evenodd" clip-rule="evenodd" d="M11.9287 6.65047L11.3727 7.70664H9.69092L12.4221 2.33252H14.3089L17.0909 7.70664H15.4041L14.8209 6.65047H11.9287ZM13.3833 3.66503L12.3831 5.55699H14.3208L13.3833 3.66503Z" fill="white"/>
</g>
<defs>
<clipPath id="clip0_232_16939">
<rect width="25.4042" height="22" fill="white" transform="translate(1.02441)"/>
</clipPath>
</defs>
</svg>
